<?xml version="1.0" encoding="utf-8"?>
<!-- Generator: Adobe Illustrator 24.1.1, SVG Export Plug-In . SVG Version: 6.00 Build 0)  -->
<svg version="1.1" id="Layer_1" xmlns="http://www.w3.org/2000/svg" xmlns:xlink="http://www.w3.org/1999/xlink" x="0px" y="0px"
	 viewBox="0 0 32 32" style="enable-background:new 0 0 32 32;" xml:space="preserve">
<style type="text/css">
	.st0{fill:#FFFFFF;}
</style>
<g id="grid-2">
	<path class="st0" d="M9.1,1.9c0-0.7-0.5-1.2-1.2-1.2H1.5c-0.7,0-1.2,0.5-1.2,1.2v6.4c0,0.7,0.5,1.2,1.2,1.2h6.4
		c0.7,0,1.2-0.5,1.2-1.2V1.9z"/>
	<path class="st0" d="M20.2,1.9c0-0.7-0.5-1.2-1.2-1.2h-6.4c-0.7,0-1.2,0.5-1.2,1.2v6.4c0,0.7,0.5,1.2,1.2,1.2H19
		c0.7,0,1.2-0.5,1.2-1.2V1.9z"/>
	<path class="st0" d="M31.5,1.9c0-0.7-0.5-1.2-1.2-1.2h-6.4c-0.7,0-1.2,0.5-1.2,1.2v6.4c0,0.7,0.5,1.2,1.2,1.2h6.4
		c0.7,0,1.2-0.5,1.2-1.2C31.5,8.3,31.5,1.9,31.5,1.9z"/>
	<path class="st0" d="M9.1,12.7c0-0.7-0.5-1.2-1.2-1.2H1.5c-0.7,0-1.2,0.5-1.2,1.2v6.4c0,0.7,0.5,1.2,1.2,1.2h6.4
		c0.7,0,1.2-0.5,1.2-1.2V12.7z"/>
	<path class="st0" d="M20.2,12.7c0-0.7-0.5-1.2-1.2-1.2h-6.4c-0.7,0-1.2,0.5-1.2,1.2v6.4c0,0.7,0.5,1.2,1.2,1.2H19
		c0.7,0,1.2-0.5,1.2-1.2V12.7z"/>
	<path class="st0" d="M31.5,12.7c0-0.7-0.5-1.2-1.2-1.2h-6.4c-0.7,0-1.2,0.5-1.2,1.2v6.4c0,0.7,0.5,1.2,1.2,1.2h6.4
		c0.7,0,1.2-0.5,1.2-1.2C31.5,19.1,31.5,12.7,31.5,12.7z"/>
	<path class="st0" d="M9.1,23.7c0-0.7-0.5-1.2-1.2-1.2H1.5c-0.7,0-1.2,0.5-1.2,1.2v6.4c0,0.7,0.5,1.2,1.2,1.2h6.4
		c0.7,0,1.2-0.5,1.2-1.2V23.7z"/>
	<path class="st0" d="M20.2,23.7c0-0.7-0.5-1.2-1.2-1.2h-6.4c-0.7,0-1.2,0.5-1.2,1.2v6.4c0,0.7,0.5,1.2,1.2,1.2H19
		c0.7,0,1.2-0.5,1.2-1.2V23.7z"/>
	<path class="st0" d="M31.5,23.7c0-0.7-0.5-1.2-1.2-1.2h-6.4c-0.7,0-1.2,0.5-1.2,1.2v6.4c0,0.7,0.5,1.2,1.2,1.2h6.4
		c0.7,0,1.2-0.5,1.2-1.2C31.5,30.1,31.5,23.7,31.5,23.7z"/>
</g>
</svg>
